<svg width="22" height="23" viewBox="0 0 22 23" fill="none" xmlns="http://www.w3.org/2000/svg">
<path fill-rule="evenodd" clip-rule="evenodd" d="M2.44531 10.2794C2.44531 6.23505 5.73426 2.94605 9.77853 2.94605C13.8228 2.94605 17.1118 6.23505 17.1118 10.2794C17.1118 14.3237 13.8228 17.6127 9.77853 17.6127C5.73426 17.6127 2.44531 14.3237 2.44531 10.2794ZM21.6416 20.4137L17.4922 16.263C18.7792 14.6081 19.5553 12.534 19.5553 10.2778C19.5553 4.88656 15.1688 0.5 9.77764 0.5C4.3865 0.5 0 4.88656 0 10.2778C0 15.669 4.3865 20.0556 9.77764 20.0556C12.0338 20.0556 14.1079 19.2794 15.7628 17.9924L19.9134 22.1419C20.1517 22.3802 20.4646 22.5 20.7775 22.5C21.0904 22.5 21.4033 22.3802 21.6416 22.1419C22.1195 21.664 22.1195 20.8916 21.6416 20.4137Z" fill="#222222"/>
</svg>
